<?xml version="1.0" encoding="UTF-8" standalone="no"?><!DOCTYPE svg PUBLIC "-//W3C//DTD SVG 1.1//EN" "http://www.w3.org/Graphics/SVG/1.1/DTD/svg11.dtd"><svg width="100%" height="100%" viewBox="0 0 2000 2000" version="1.1" xmlns="http://www.w3.org/2000/svg" xmlns:xlink="http://www.w3.org/1999/xlink" xml:space="preserve" xmlns:serif="http://www.serif.com/" style="fill-rule:evenodd;clip-rule:evenodd;stroke-linecap:round;stroke-linejoin:round;stroke-miterlimit:1.5;"><circle cx="1000" cy="1000" r="874.197" style="fill:none;stroke:#2d1d1d;stroke-width:59.69px;"/><path d="M792.419,179.804c452.678,-114.567 913.21,159.936 1027.777,612.615c114.567,452.678 -159.936,913.21 -612.615,1027.777c-452.678,114.567 -913.21,-159.936 -1027.777,-612.615c-114.567,-452.678 159.936,-913.21 612.615,-1027.777Z" style="fill:#fafdf6;stroke:#d93f51;stroke-width:59.69px;"/><circle cx="990.79" cy="1000" r="583.282" style="fill:#358a69;"/><path d="M422.406,1146.182l1136.768,-287.701" style="fill:none;stroke:#d93f51;stroke-width:483.33px;stroke-linecap:square;stroke-linejoin:miter;"/><path d="M90.819,1387.064l-77.762,-315.45l115.085,-29.127l64.625,53.482l32.391,-78.035l114.91,-29.082l77.762,315.45l-118.594,30.015l-38.932,-157.932l-29.879,72.348l-59.944,-49.615l38.932,157.932l-118.594,30.015Z" style="fill:#201014;fill-rule:nonzero;stroke:#fafdf6;stroke-width:6.84px;stroke-linecap:butt;stroke-miterlimit:2;"/><path d="M508.677,1281.309l-118.594,30.015l15.218,-338.982l168.944,-42.757l170.743,291.918l-118.418,29.97l-28.586,-49.426l-87.016,22.023l-2.291,57.24Zm5.524,-137.12l43.859,-11.1l-41.243,-72.796l-2.616,83.896Z" style="fill:#201014;fill-rule:nonzero;stroke:#fafdf6;stroke-width:6.84px;stroke-linecap:butt;stroke-miterlimit:2;"/><path d="M638.242,1061.846l-34.448,-139.741l237.89,-60.207l34.448,139.741l-59.648,15.096l43.315,175.71l-118.594,30.015l-43.315,-175.71l-59.648,15.096Z" style="fill:#201014;fill-rule:nonzero;stroke:#fafdf6;stroke-width:6.84px;stroke-linecap:butt;stroke-miterlimit:2;"/><path d="M974.433,1163.432l-118.594,30.015l15.218,-338.982l168.944,-42.757l170.743,291.918l-118.418,29.97l-28.586,-49.426l-87.016,22.023l-2.291,57.24Zm5.524,-137.12l43.859,-11.1l-41.243,-72.796l-2.616,83.896Z" style="fill:#201014;fill-rule:nonzero;stroke:#fafdf6;stroke-width:6.84px;stroke-linecap:butt;stroke-miterlimit:2;"/><path d="M1108.795,794.296l131.751,-33.345c47.484,-12.018 87.964,-5.828 121.438,18.569c33.474,24.397 55.596,58.439 66.365,102.125c6.862,27.838 7.466,55.613 1.809,83.325c-5.656,27.712 -18.139,51.295 -37.448,70.75c-19.309,19.455 -45.046,33.252 -77.209,41.392l-128.945,32.634l-77.762,-315.45Zm148.178,90.753l18.243,74.005l2.982,-0.755c14.269,-3.611 23.868,-9.152 28.799,-16.622c4.93,-7.47 5.748,-17.889 2.453,-31.257c-5.979,-24.255 -20.957,-33.348 -44.933,-27.28l-7.544,1.909Z" style="fill:#201014;fill-rule:nonzero;stroke:#fafdf6;stroke-width:6.84px;stroke-linecap:butt;stroke-miterlimit:2;"/><path d="M1581.004,1015.407c-38.245,9.679 -74.569,2.072 -108.974,-22.822c-34.404,-24.894 -57.212,-60.079 -68.423,-105.557c-11.177,-45.34 -7.343,-87.122 11.502,-125.346c18.845,-38.224 47.39,-62.176 85.635,-71.855c38.362,-9.709 74.728,-2.185 109.098,22.57c34.37,24.756 57.144,59.804 68.321,105.144c11.211,45.478 7.411,87.398 -11.4,125.759c-18.811,38.362 -47.397,62.397 -85.759,72.106Zm-50.449,-204.65c-7.602,1.924 -13.145,6.658 -16.628,14.201c-3.483,7.543 -4.053,16.069 -1.709,25.578c2.344,9.509 6.804,16.762 13.378,21.76c6.575,4.998 13.663,6.534 21.266,4.61c7.719,-1.954 13.32,-6.702 16.804,-14.245c3.483,-7.543 4.053,-16.069 1.709,-25.578c-2.344,-9.509 -6.804,-16.762 -13.378,-21.76c-6.575,-4.998 -13.722,-6.52 -21.441,-4.566Z" style="fill:#201014;fill-rule:nonzero;stroke:#fafdf6;stroke-width:6.84px;stroke-linecap:butt;stroke-miterlimit:2;"/><path d="M1615.679,666.01l174.908,-44.267c30.292,-7.666 56.309,-4.698 78.052,8.906c21.743,13.604 35.944,33.911 42.602,60.922c7.338,29.767 2.904,55.633 -13.302,77.596c38.468,31.552 68.136,77.556 89.004,138.012l-122.98,31.125c-12.04,-39.265 -24.352,-67.408 -36.934,-84.428c-12.583,-17.02 -27.236,-23.414 -43.961,-19.181l28.791,116.795l-118.418,29.97l-77.762,-315.45Zm134.419,34.939l14.982,60.775l3.333,-0.844c21.286,-5.387 29.5,-17.934 24.642,-37.641c-2.038,-8.269 -5.994,-14.991 -11.867,-20.166c-5.873,-5.175 -13.839,-6.49 -23.897,-3.944l-7.193,1.82Z" style="fill:#201014;fill-rule:nonzero;stroke:#fafdf6;stroke-width:6.84px;stroke-linecap:butt;stroke-miterlimit:2;"/></svg>